# xmcd
#
# Track frame offsets:
#	150
#	16267
#	25907
#	38907
#	49540
#	67292
#	79520
#	89495
#	103745
#	112367
#	121062
#	135225
#	146475
#	155047
#	172437
#	190107
#	197787
#	221062
#	232082
#	245915
#	258242
#	272762
#	291167
#	302922
#	317285
#
# Disc length: 4380 seconds
#
# Revision: 1
# Processed by: cddbd v1.4PL0 Copyright (c) Steve Scherf et al.
# Submitted via: audiograbber 1.80.04
#
DISCID=7a111a19
DTITLE=Tocr, Josef Votruba, Lubomir Pleva - Tenkrat na zapade
DYEAR=1974
DGENRE=Country
TTITLE0=Velka zeme
TTITLE1=Jak jsme se dostali na zapad
TTITLE2=Harmonika
TTITLE3=Par dolaru navic
TTITLE4=Mackennovo zlato
TTITLE5=Hodny, zly a osklivy
TTITLE6=Sedm statecnych
TTITLE7=Bud porad se mnou
TTITLE8=Bezi dal
TTITLE9=Zelene listy leta
TTITLE10=Poklad na stribrnem jezere
TTITLE11=Na sever od Aljasky
TTITLE12=Skrivanek
TTITLE13=Andaluza
TTITLE14=Svit luny
TTITLE15=Hora Staccato
TTITLE16=Air
TTITLE17=Savlovy tanec
TTITLE18=More
TTITLE19=Mexicky tanec
TTITLE20=Jedu noci
TTITLE21=Hvezdny prach
TTITLE22=Neni to romanticke?
TTITLE23=Grisbi
TTITLE24=Bal brouku
EXTD=Czech repuplic
EXTT0=
EXTT1=
EXTT2=
EXTT3=
EXTT4=
EXTT5=
EXTT6=
EXTT7=
EXTT8=
EXTT9=
EXTT10=
EXTT11=
EXTT12=
EXTT13=
EXTT14=
EXTT15=
EXTT16=
EXTT17=
EXTT18=
EXTT19=
EXTT20=
EXTT21=
EXTT22=
EXTT23=
EXTT24=
PLAYORDER=
